<svg xmlns="http://www.w3.org/2000/svg" viewBox="0 0 600 760"><rect width="600" height="760" fill="#2de5e5"/><circle cx="480" cy="115" r="160" fill="#ff2d78" opacity=".55"/><circle cx="90" cy="650" r="180" fill="#ffc857" opacity=".7"/><g transform="translate(65 70)"><path d="M105 335h260c0 170-42 194-130 194S105 505 105 335Z" fill="#d9f6f2" stroke="#160e3c" stroke-width="12"/><path d="M235 529v80m-85 30h170" stroke="#160e3c" stroke-width="15" stroke-linecap="round"/><circle cx="165" cy="320" r="100" fill="#ff74a7" stroke="#fff" stroke-width="7"/><circle cx="290" cy="320" r="100" fill="#ffc857" stroke="#fff" stroke-width="7"/><circle cx="225" cy="215" r="105" fill="#fff4dd" stroke="#fff" stroke-width="7"/><path d="M118 290c90 70 160-80 235 4" fill="none" stroke="#7b381f" stroke-width="24"/><circle cx="225" cy="95" r="34" fill="#dc174d" stroke="#fff" stroke-width="7"/><path d="M225 64c4-31 25-48 48-52" fill="none" stroke="#176e55" stroke-width="12" stroke-linecap="round"/><g fill="#fff"><rect x="180" y="170" width="9" height="24" rx="4" transform="rotate(30 180 170)"/><rect x="254" y="185" width="9" height="24" rx="4" transform="rotate(-25 254 185)"/><rect x="295" y="275" width="9" height="24" rx="4" transform="rotate(40 295 275)"/></g></g></svg>
