<svg xmlns="http://www.w3.org/2000/svg" viewBox="0 0 600 440"><rect width="600" height="440" fill="#ffc857"/><g stroke="#160e3c" stroke-width="8"><g transform="translate(55 50) rotate(-8 110 180)"><path d="m50 170 70 220 80-220Z" fill="#d98a3c"/><circle cx="125" cy="140" r="82" fill="#ff2d78"/><circle cx="125" cy="73" r="73" fill="#fff1dc"/></g><g transform="translate(218 32)"><path d="m50 170 70 220 80-220Z" fill="#d98a3c"/><circle cx="125" cy="140" r="82" fill="#2de5e5"/><circle cx="125" cy="73" r="73" fill="#c4a0ff"/></g><g transform="translate(385 60) rotate(8 110 180)"><path d="m50 170 70 220 80-220Z" fill="#d98a3c"/><circle cx="125" cy="140" r="82" fill="#fff1dc"/><circle cx="125" cy="73" r="73" fill="#ff6e9f"/></g></g><g fill="none" stroke="#8a522d" stroke-width="5" opacity=".7"><path d="m100 240 130 60m-95-130 74 170M270 220l135 65m-90-125 58 210m65-125 115 55m-86-120 55 175"/></g></svg>
