<svg xmlns="http://www.w3.org/2000/svg" viewBox="0 0 620 690" role="img" aria-labelledby="t"><title id="t">Placeholder — cône glacé héro</title><defs><filter id="g"><feGaussianBlur stdDeviation="9" result="b"/><feMerge><feMergeNode in="b"/><feMergeNode in="SourceGraphic"/></feMerge></filter><pattern id="w" width="28" height="28" patternUnits="userSpaceOnUse" patternTransform="rotate(45)"><path d="M0 0v28M14 0v28" stroke="#8d4f28" stroke-width="3" opacity=".55"/></pattern></defs><ellipse cx="310" cy="635" rx="140" ry="24" fill="#07051c" opacity=".5"/><path d="m202 351 108 294 112-294z" fill="#f2ac4d" stroke="#fff1bd" stroke-width="7"/><path d="m202 351 108 294 112-294z" fill="url(#w)"/><path d="M181 350c-34-19-26-68 14-75-14-45 42-78 76-46 12-57 95-56 107 0 42-20 82 23 58 61 45 14 38 68 3 76-75 18-198 17-258-16Z" fill="#2de5e5" stroke="#fff" stroke-width="7" filter="url(#g)"/><path d="M167 278c-29-19-17-62 18-64-13-42 34-69 67-44 8-45 72-52 93-14 36-28 83 12 60 52 42 7 45 55 11 71-62 28-190 27-249-1Z" fill="#ff2d78" stroke="#fff" stroke-width="7" filter="url(#g)"/><circle cx="288" cy="135" r="22" fill="#ffc857"/><path d="M288 116c0-27 13-42 32-49" fill="none" stroke="#55c868" stroke-width="8" stroke-linecap="round"/><g fill="#fff7df"><circle cx="211" cy="236" r="6"/><circle cx="263" cy="193" r="7"/><circle cx="333" cy="218" r="6"/><circle cx="383" cy="248" r="7"/></g><g fill="#ffc857"><rect x="237" y="304" width="8" height="22" rx="4" transform="rotate(25 237 304)"/><rect x="357" y="301" width="8" height="22" rx="4" transform="rotate(-25 357 301)"/></g></svg>
