<svg xmlns="http://www.w3.org/2000/svg" viewBox="0 0 680 560" role="img" aria-labelledby="t"><title id="t">Placeholder — boutique vintage</title><rect width="680" height="560" fill="#21164c"/><path d="M0 420h680v140H0z" fill="#e8c97b"/><path d="M0 420h680M0 490h680M85 420v140m85-140v140m85-140v140m85-140v140m85-140v140m85-140v140m85-140v140" stroke="#a75a5a" stroke-width="4" opacity=".55"/><rect x="70" y="105" width="540" height="310" rx="16" fill="#fff2d6" stroke="#2de5e5" stroke-width="7"/><path d="M85 170h510" stroke="#ff2d78" stroke-width="18"/><path d="M110 330h460v85H110z" fill="#ff5e94"/><g fill="#2de5e5"><circle cx="160" cy="372" r="15"/><circle cx="235" cy="372" r="15"/><circle cx="310" cy="372" r="15"/><circle cx="385" cy="372" r="15"/><circle cx="460" cy="372" r="15"/><circle cx="535" cy="372" r="15"/></g><rect x="125" y="205" width="180" height="100" rx="50" fill="#201448"/><text x="215" y="250" fill="#ff2d78" text-anchor="middle" font-family="cursive" font-size="30">FikolasAI</text><text x="215" y="278" fill="#2de5e5" text-anchor="middle" font-family="sans-serif" font-size="13" letter-spacing="4">ICE CREAM</text><g stroke="#3a286d" stroke-width="6"><path d="M380 305v-75m80 75v-75m80 75v-75"/><path d="M355 305h210"/></g><g fill="#ffc857"><circle cx="380" cy="223" r="12"/><circle cx="460" cy="223" r="12"/><circle cx="540" cy="223" r="12"/></g><text x="340" y="70" fill="#fff7df" text-anchor="middle" font-family="sans-serif" font-weight="bold" font-size="18" letter-spacing="7">PEACHTREE STREET · ATL</text></svg>
